<svg width="927" height="858" viewBox="0 0 927 858" fill="none" xmlns="http://www.w3.org/2000/svg">
<path d="M50.6816 92.5176H87.9355L69.6074 34.7441L50.6816 92.5176ZM52.5742 1.17578H87.2383L139.234 148H105.965L96.502 117.818H42.4141L32.2539 148H0.179688L52.5742 1.17578ZM40.3223 261.676V294.049H76.3809C82.8223 294.049 88.0352 292.854 92.0195 290.463C96.0703 288.006 98.0957 283.689 98.0957 277.514C98.0957 270.674 95.4395 266.158 90.127 263.967C85.5449 262.439 79.7012 261.676 72.5957 261.676H40.3223ZM40.3223 318.354V357.5H76.3809C82.8223 357.5 87.8359 356.637 91.4219 354.91C97.9297 351.723 101.184 345.613 101.184 336.582C101.184 328.945 98.0293 323.699 91.7207 320.844C88.2012 319.25 83.2539 318.42 76.8789 318.354H40.3223ZM82.3574 236.176C100.354 236.441 113.104 241.654 120.607 251.814C125.123 258.057 127.381 265.527 127.381 274.227C127.381 283.191 125.123 290.396 120.607 295.842C118.084 298.896 114.365 301.686 109.451 304.209C116.955 306.932 122.6 311.248 126.385 317.158C130.236 323.068 132.162 330.24 132.162 338.674C132.162 347.373 129.971 355.176 125.588 362.082C122.799 366.664 119.312 370.516 115.129 373.637C110.414 377.223 104.836 379.68 98.3945 381.008C92.0195 382.336 85.0801 383 77.5762 383H11.0371V236.176H82.3574ZM4.16406 545.783C4.16406 520.15 11.0371 500.395 24.7832 486.516C36.7363 474.43 51.9434 468.387 70.4043 468.387C95.1074 468.387 113.17 476.488 124.592 492.691C130.9 501.789 134.287 510.92 134.752 520.084H104.072C102.08 513.045 99.5234 507.732 96.4023 504.146C90.8242 497.771 82.5566 494.584 71.5996 494.584C60.4434 494.584 51.6445 499.1 45.2031 508.131C38.7617 517.096 35.541 529.812 35.541 546.281C35.541 562.75 38.9277 575.102 45.7012 583.336C52.541 591.504 61.207 595.588 71.6992 595.588C82.457 595.588 90.6582 592.068 96.3027 585.029C99.4238 581.244 102.014 575.566 104.072 567.996H134.453C131.797 584 124.99 597.016 114.033 607.043C103.143 617.07 89.1641 622.084 72.0977 622.084C50.9805 622.084 34.3789 615.311 22.293 601.764C10.207 588.15 4.16406 569.49 4.16406 545.783ZM40.3223 731.676V827.5H68.6113C83.0879 827.5 93.1816 820.361 98.8926 806.084C102.014 798.248 103.574 788.918 103.574 778.094C103.574 763.152 101.217 751.697 96.502 743.729C91.8535 735.693 82.5566 731.676 68.6113 731.676H40.3223ZM73.791 706.176C82.8887 706.309 90.459 707.371 96.502 709.363C106.795 712.75 115.129 718.959 121.504 727.99C126.617 735.295 130.104 743.197 131.963 751.697C133.822 760.197 134.752 768.299 134.752 776.002C134.752 795.525 130.834 812.061 122.998 825.607C112.373 843.869 95.9707 853 73.791 853H10.5391V706.176H73.791Z" fill="#FFCF42"/>
<path d="M151.463 1.17578H183.637L242.107 103.674V1.17578H270.695V148H240.016L180.051 43.709V148H151.463V1.17578ZM377.154 1.17578H411.918L362.811 92.8164V148H332.131V92.8164L281.33 1.17578H317.488L347.969 65.125L377.154 1.17578ZM216.906 361.086C229.059 361.086 238.688 356.604 245.793 347.639C252.965 338.674 256.551 325.924 256.551 309.389C256.551 292.92 252.965 280.203 245.793 271.238C238.688 262.207 229.059 257.691 216.906 257.691C204.754 257.691 195.059 262.174 187.82 271.139C180.582 280.104 176.963 292.854 176.963 309.389C176.963 325.924 180.582 338.674 187.82 347.639C195.059 356.604 204.754 361.086 216.906 361.086ZM287.23 309.389C287.23 335.752 279.826 355.939 265.018 369.951C253.928 381.373 237.891 387.084 216.906 387.084C195.922 387.084 179.885 381.373 168.795 369.951C153.92 355.939 146.482 335.752 146.482 309.389C146.482 282.494 153.92 262.307 168.795 248.826C179.885 237.404 195.922 231.693 216.906 231.693C237.891 231.693 253.928 237.404 265.018 248.826C279.826 262.307 287.23 282.494 287.23 309.389ZM334.521 261.676V357.5H362.811C377.287 357.5 387.381 350.361 393.092 336.084C396.213 328.248 397.773 318.918 397.773 308.094C397.773 293.152 395.416 281.697 390.701 273.729C386.053 265.693 376.756 261.676 362.811 261.676H334.521ZM367.99 236.176C377.088 236.309 384.658 237.371 390.701 239.363C400.994 242.75 409.328 248.959 415.703 257.99C420.816 265.295 424.303 273.197 426.162 281.697C428.021 290.197 428.951 298.299 428.951 306.002C428.951 325.525 425.033 342.061 417.197 355.607C406.572 373.869 390.17 383 367.99 383H304.738V236.176H367.99ZM529.932 236.176H564.695L515.588 327.816V383H484.908V327.816L434.107 236.176H470.266L500.746 300.125L529.932 236.176ZM192.104 562.518H229.357L211.029 504.744L192.104 562.518ZM193.996 471.176H228.66L280.656 618H247.387L237.924 587.818H183.836L173.676 618H141.602L193.996 471.176ZM292.885 471.176H325.059L383.529 573.674V471.176H412.117V618H381.438L321.473 513.709V618H292.885V471.176ZM260.535 732.174H182.84V763.352H254.16V788.852H182.84V826.604H264.121V853H152.857V706.176H260.535V732.174ZM367.99 706.176H399.865L349.762 853H320.775L271.17 706.176H303.941L335.816 817.639L367.99 706.176ZM520.668 732.174H442.973V763.352H514.293V788.852H442.973V826.604H524.254V853H412.99V706.176H520.668V732.174ZM542.16 706.176H572.84V826.604H645.555V853H542.16V706.176ZM725.816 831.086C737.969 831.086 747.598 826.604 754.703 817.639C761.875 808.674 765.461 795.924 765.461 779.389C765.461 762.92 761.875 750.203 754.703 741.238C747.598 732.207 737.969 727.691 725.816 727.691C713.664 727.691 703.969 732.174 696.73 741.139C689.492 750.104 685.873 762.854 685.873 779.389C685.873 795.924 689.492 808.674 696.73 817.639C703.969 826.604 713.664 831.086 725.816 831.086ZM796.141 779.389C796.141 805.752 788.736 825.939 773.928 839.951C762.838 851.373 746.801 857.084 725.816 857.084C704.832 857.084 688.795 851.373 677.705 839.951C662.83 825.939 655.393 805.752 655.393 779.389C655.393 752.494 662.83 732.307 677.705 718.826C688.795 707.404 704.832 701.693 725.816 701.693C746.801 701.693 762.838 707.404 773.928 718.826C788.736 732.307 796.141 752.494 796.141 779.389ZM896.324 752.893C896.324 745.256 894.299 739.811 890.248 736.557C886.264 733.303 880.652 731.676 873.414 731.676H844.826V774.906H873.414C880.652 774.906 886.264 773.146 890.248 769.627C894.299 766.107 896.324 760.529 896.324 752.893ZM926.705 752.693C926.705 770.025 922.322 782.277 913.557 789.449C904.791 796.621 892.273 800.207 876.004 800.207H844.826V853H814.346V706.176H878.295C893.037 706.176 904.791 709.961 913.557 717.531C922.322 725.102 926.705 736.822 926.705 752.693Z" fill="white"/>
</svg>
