<svg id="Layer_1" data-name="Layer 1" xmlns="http://www.w3.org/2000/svg" xmlns:xlink="http://www.w3.org/1999/xlink" viewBox="0 0 864 317.2921">
  <defs>
    <linearGradient id="linear-gradient" x1="29.0342" y1="267.0033" x2="245.7487" y2="50.2888" gradientUnits="userSpaceOnUse">
      <stop offset="0" stop-color="#f71c9d"/>
      <stop offset="1" stop-color="#fc8926"/>
    </linearGradient>
  </defs>
  <title>logo_full_color_rgb</title>
  <g>
    <g id="type">
      <path id="type_CompoundPathItem_" data-name="type &lt;CompoundPathItem&gt;" d="M368.9019,213.4056q-23.45,0-38.9523-15.5051-15.5077-15.5038-15.5051-39.2542,0-23.7477,15.5051-39.2547,15.5037-15.5038,38.9523-15.5051a54.6586,54.6586,0,0,1,22.9926,4.8406,48.2661,48.2661,0,0,1,17.7742,13.7654,50.7807,50.7807,0,0,1,9.9082,20.7242H402.03a32.7863,32.7863,0,0,0-12.5551-16.5639,35.6627,35.6627,0,0,0-20.5726-5.9754q-15.8837,0-26.3212,10.74-10.4371,10.7431-10.4375,27.3045,0,16.5636,10.4375,27.2284t26.3212,10.6645a35.011,35.011,0,0,0,21.026-6.4288,33.1644,33.1644,0,0,0,12.4042-17.6233h17.6987q-4.0845,18.6065-18.0012,29.7245Q388.11,213.4062,368.9019,213.4056Z" style="fill: #383838"/>
      <path id="type_CompoundPathItem_2" data-name="type &lt;CompoundPathItem&gt;" d="M505.7229,201.2283q-12.4791,12.1779-31.2372,12.1773t-31.2372-12.1773q-12.4789-12.1749-12.48-30.6323a43.1008,43.1008,0,0,1,5.6731-21.9339,40.0636,40.0636,0,0,1,15.7321-15.3542,47.846,47.846,0,0,1,44.624,0A40.0846,40.0846,0,0,1,512.53,148.6621a43.1008,43.1008,0,0,1,5.6731,21.9339Q518.2032,189.0537,505.7229,201.2283Zm-31.2372-3.8572a27.5922,27.5922,0,0,0,13.766-3.404,24.2179,24.2179,0,0,0,9.4542-9.53,28.0148,28.0148,0,0,0,3.4033-13.8415q0-11.6466-7.4875-19.2109t-19.136-7.5636q-11.6495,0-19.1354,7.5636-7.4881,7.565-7.4875,19.2109,0,11.65,7.4875,19.2114Q462.8385,197.3733,474.4857,197.3711Z" style="fill: #383838"/>
      <path id="type_CompoundPathItem_3" data-name="type &lt;CompoundPathItem&gt;" d="M599.4331,102.1468H616.224V213.1786H603.5173l-2.1182-9.2272q-11.799,11.1957-28.892,11.1939-18.4577,0-30.4808-12.1773Q530,190.793,530,172.3357q0-18.4539,12.0263-30.6317,12.0253-12.175,30.4808-12.1773a40.53,40.53,0,0,1,26.926,9.53Zm-44.6247,89.3249q7.5619,7.64,19.06,7.6391a26.1111,26.1111,0,0,0,26.7745-26.7751,27.2447,27.2447,0,0,0-3.4788-13.69,25.1433,25.1433,0,0,0-9.6057-9.6057,28.6761,28.6761,0,0,0-27.38,0,24.5914,24.5914,0,0,0-9.53,9.6057,27.71,27.71,0,0,0-3.4039,13.69Q547.2448,183.8337,554.8084,191.4717Z" style="fill: #383838"/>
      <path id="type_CompoundPathItem_4" data-name="type &lt;CompoundPathItem&gt;" d="M639.8208,120.0722V102.8274h17.3957v17.2448Zm.3024,94.3925V132.7788h16.7909v81.6859Z" style="fill: #383838"/>
      <path id="type_CompoundPathItem_5" data-name="type &lt;CompoundPathItem&gt;" d="M747.675,129.7531h11.043v70.9458q0,13.0113-4.9167,22.4633a34.2071,34.2071,0,0,1-14.1433,14.5217q-9.2288,5.0667-21.7829,5.0676-15.5815,0-26.17-7.6391-10.59-7.64-13.7655-21.2529h16.7909a18.3211,18.3211,0,0,0,8.6978,10.286,28.5544,28.5544,0,0,0,14.2948,3.63q10.8918,0,17.6988-6.6557,6.8073-6.6577,6.8072-18.1521v-3.6309q-11.3454,9.6825-27.0775,9.6812a38.9834,38.9834,0,0,1-28.6656-11.7233q-11.7243-11.72-11.7233-28.8166a39.422,39.422,0,0,1,11.7233-28.8926A38.8606,38.8606,0,0,1,715.152,127.787q18,0,29.8006,12.5551Zm-30.5563,63.6846a26.4191,26.4191,0,0,0,9.9836-1.8906,24.3239,24.3239,0,0,0,8.0176-5.1436,22.9494,22.9494,0,0,0,5.2184-7.9415,26.437,26.437,0,0,0,1.8912-9.9836q0-10.8918-7.11-18.0011-7.1123-7.1085-18.0012-7.11a24.56,24.56,0,0,0-25.2617,25.1108,24.0666,24.0666,0,0,0,7.1851,17.85Q706.2253,193.44,717.1187,193.4377Z" style="fill: #383838"/>
      <path id="type_CompoundPathItem_6" data-name="type &lt;CompoundPathItem&gt;" d="M850.99,129.7531H864v81.6858H850.3855l-1.6643-9.9836q-11.799,11.9516-29.4974,11.95-18.3043,0-30.4809-12.2534t-12.1772-30.6317q0-18.3791,12.1772-30.5562,12.1751-12.1751,30.4809-12.1773,18,0,29.8005,12.1012ZM801.2987,189.732q7.6368,7.64,19.2108,7.6391t19.06-7.6391q7.4883-7.6368,7.4882-19.2115,0-11.5727-7.4882-19.1354t-19.1353-7.5636a27.2381,27.2381,0,0,0-13.69,3.4788,25.1255,25.1255,0,0,0-9.6057,9.6057,27.2181,27.2181,0,0,0-3.4788,13.69A25.95,25.95,0,0,0,801.2987,189.732Z" style="fill: #383838"/>
    </g>
    <g id="logoMark">
      <polygon id="logoMark_PathItem_" data-name="logoMark &lt;PathItem&gt;" points="137.391 237.969 274.783 158.646 274.783 237.969 137.391 317.292 0 237.969 0 79.323 137.391 0 274.783 79.323 137.391 158.646 68.696 118.985 68.696 198.308 137.391 237.969" style="fill: url(#linear-gradient)"/>
      <polygon id="logoMark_PathItem_2" data-name="logoMark &lt;PathItem&gt;" points="206.087 118.984 137.391 158.646 68.696 118.984 137.391 79.323 206.087 118.984" style="fill: #fff;opacity: 0.6"/>
    </g>
  </g>
</svg>
