<?xml version="1.0" encoding="UTF-8"?>
<svg width="300px" height="105px" viewBox="0 0 300 105" version="1.1" xmlns="http://www.w3.org/2000/svg" xmlns:xlink="http://www.w3.org/1999/xlink">
    <!-- Generator: Sketch 58 (84663) - https://sketch.com -->
    <title>Artboard</title>
    <desc>Created with Sketch.</desc>
    <defs>
        <polygon id="path-1" points="0.381451613 23.36803 21.1287442 23.4282258 12.3357143 54.6812788 38.7306452 54.6812788 54.0799539 0.0830069124 7.20195853 0.0798387097"></polygon>
        <linearGradient x1="-15.9543877%" y1="87.0835648%" x2="150.088756%" y2="-18.5819691%" id="linearGradient-3">
            <stop stop-color="#3333FF" offset="0%"></stop>
            <stop stop-color="#FF3397" offset="100%"></stop>
        </linearGradient>
        <polygon id="path-4" points="15.4429728 0.46153249 0.0527345818 54.275971 47.0576723 54.2790937 53.8960133 31.3248783 33.0931738 31.2661719 41.9100147 0.46153249"></polygon>
        <linearGradient x1="-113.25537%" y1="155.2691%" x2="58.4207621%" y2="49.7057069%" id="linearGradient-6">
            <stop stop-color="#3333FF" offset="0%"></stop>
            <stop stop-color="#FF3397" offset="100%"></stop>
        </linearGradient>
    </defs>
    <g id="Artboard" stroke="none" stroke-width="1" fill="none" fill-rule="evenodd">
        <g id="Group-Copy" transform="translate(8.000000, 3.000000)">
            <polygon id="Fill-136" fill="#212020" points="70.9460868 78.710952 70.9460868 97 68.0237603 97 68.0237603 78.710952 61 78.710952 61 76 78 76 78 78.710952"></polygon>
            <polygon id="Fill-137" fill="#212020" points="84 97 84 76 98.6886401 76 98.6886401 78.710952 86.9261542 78.710952 86.9261542 84.6407611 94.4245817 84.6407611 94.4245817 87.194307 86.9261542 87.194307 86.9261542 94.2884108 99 94.2884108 99 97"></polygon>
            <path d="M162.466821,78.8689952 L158.566812,88.5816466 L166.27025,88.5816466 L162.466821,78.8689952 Z M169.586178,97 L167.27876,91.1683307 L157.526765,91.1683307 L155.185183,97 L152,97 L160.8105,76 L164.157964,76 L173,97 L169.586178,97 Z" id="Fill-138" fill="#212020"></path>
            <polygon id="Fill-139" fill="#212020" points="179 97 179 76 182.012571 76 182.012571 94.2884108 194 94.2884108 194 97"></polygon>
            <g id="Group-149" transform="translate(107.000000, 75.000000)" fill="#212020">
                <path d="M100.998663,3.37786944 C96.5619073,3.37786944 93.9062942,6.72628611 93.9062942,11.5013417 C93.9062942,16.2738417 96.5619073,19.6561194 100.998663,19.6561194 C105.402586,19.6561194 108.088506,16.2738417 108.088506,11.5013417 C108.088506,6.72628611 105.402586,3.37786944 100.998663,3.37786944 M100.998663,22.4052583 C94.7801336,22.4052583 90.845962,17.697925 90.845962,11.5013417 C90.845962,5.30539722 94.7801336,0.594869444 100.998663,0.594869444 C107.215298,0.594869444 111.182933,5.30539722 111.182933,11.5013417 C111.182933,17.697925 107.215298,22.4052583 100.998663,22.4052583" id="Fill-140"></path>
                <path d="M120.328698,11.5015333 C120.328698,16.4318389 123.048081,19.7208389 127.421066,19.7208389 C131.138041,19.7208389 133.888362,17.4438389 134.167435,13.8072833 L127.421066,13.8072833 L127.421066,11.21595 L136.948694,11.21595 C137.01057,11.6286722 137.07434,12.1346722 137.07434,12.7959222 C137.07434,17.8872278 133.575194,22.40545 127.452004,22.40545 C121.266307,22.40545 117.267734,17.7913944 117.267734,11.4702278 C117.267734,5.11583889 121.266307,0.595061111 127.359822,0.595061111 C130.919581,0.595061111 133.668008,2.11242222 135.54449,4.83025556 L133.23172,6.44345 C131.950004,4.45139444 130.012909,3.31289444 127.421066,3.31289444 C122.984311,3.31289444 120.328698,6.6332 120.328698,11.5015333" id="Fill-142"></path>
                <polygon id="Fill-144" points="144.220755 22.0269722 147.125135 22.0269722 147.125135 0.973666667 144.220755 0.973666667"></polygon>
                <path d="M170.520228,6.44376944 C169.238513,4.45171389 167.302681,3.31321389 164.708943,3.31321389 C160.397834,3.31321389 157.616575,6.57090833 157.616575,11.4705472 C157.616575,16.4321583 160.428772,19.7211583 164.647068,19.7211583 C167.208604,19.7211583 169.238513,18.4861861 170.520228,16.4634639 L172.924549,18.0453528 C171.145301,20.763825 168.302797,22.4051306 164.678005,22.4051306 C158.585754,22.4051306 154.556243,17.8223806 154.556243,11.5018528 C154.556243,5.20879722 158.585754,0.594741667 164.647068,0.594741667 C168.208089,0.594741667 170.955254,2.11210278 172.831735,4.830575 L170.520228,6.44376944 Z" id="Fill-146"></path>
                <path d="M12.1815361,13.0188944 C14.6496274,12.1346722 16.4591821,10.07745 16.4591821,7.13856111 C16.4591821,3.40872778 13.7732624,0.973283333 9.49498504,0.973283333 L0.372707664,0.973283333 L0.372707664,22.0272278 L3.30991934,22.0272278 L3.30991934,14.8965889 L3.30865657,14.8965889 L3.30865657,9.57081111 L3.30991934,9.57081111 L3.30991934,3.69175556 L9.40027701,3.69175556 C11.8045982,3.69175556 13.429788,5.11583889 13.429788,7.35961667 C13.429788,9.50947778 11.8999376,10.9648667 9.49498504,10.9648667 L6.34752153,10.9648667 L6.34752153,13.5555611 L9.27463102,13.5555611 L13.7120179,22.0272278 L17.023642,22.0272278 L12.1815361,13.0188944 Z" id="Fill-147"></path>
                <path d="M35.1204522,13.0188944 C37.5885434,12.1346722 39.3980982,10.07745 39.3980982,7.13856111 C39.3980982,3.40872778 36.7121785,0.973283333 32.4339011,0.973283333 L23.3109923,0.973283333 L23.3109923,22.0272278 L26.2488354,22.0272278 L26.2488354,14.8965889 L26.2475726,14.8965889 L26.2475726,9.57081111 L26.2488354,9.57081111 L26.2488354,3.69175556 L32.3391931,3.69175556 C34.7428828,3.69175556 36.368704,5.11583889 36.368704,7.35961667 C36.368704,9.50947778 34.8382223,10.9648667 32.4339011,10.9648667 L29.2864376,10.9648667 L29.2864376,13.5555611 L32.2135471,13.5555611 L36.6503026,22.0272278 L39.9619266,22.0272278 L35.1204522,13.0188944 Z" id="Fill-148"></path>
            </g>
            <g id="Group-152" transform="translate(0.000000, 31.000000)">
                <mask id="mask-2" fill="white">
                    <use xlink:href="#path-1"></use>
                </mask>
                <g id="Clip-151"></g>
                <polygon id="Fill-150" fill="url(#linearGradient-3)" mask="url(#mask-2)" points="0.381451613 23.36803 21.1287442 23.4282258 12.3357143 54.6812788 38.7306452 54.6812788 54.0799539 0.0830069124 7.20195853 0.0798387097"></polygon>
            </g>
            <g id="Group-155" transform="translate(54.000000, 0.000000)">
                <mask id="mask-5" fill="white">
                    <use xlink:href="#path-4"></use>
                </mask>
                <g id="Clip-154"></g>
                <polygon id="Fill-153" fill="url(#linearGradient-6)" mask="url(#mask-5)" points="15.4429728 0.46153249 0.0527345818 54.275971 47.0576723 54.2790937 53.8960133 31.3248783 33.0931738 31.2661719 41.9100147 0.46153249"></polygon>
            </g>
        </g>
    </g>
</svg>